<?xml version="1.0" standalone="no"?>
<!DOCTYPE svg PUBLIC "-//W3C//DTD SVG 20010904//EN"
 "http://www.w3.org/TR/2001/REC-SVG-20010904/DTD/svg10.dtd">
<svg version="1.0" xmlns="http://www.w3.org/2000/svg"
 width="144.000000pt" height="144.000000pt" viewBox="0 0 144.000000 144.000000"
 preserveAspectRatio="xMidYMid meet">
<metadata>
Created by potrace 1.14, written by Peter Selinger 2001-2017
</metadata>
<g transform="translate(0.000000,144.000000) scale(0.100000,-0.100000)"
fill="#000000" stroke="none">
<path d="M0 720 l0 -720 720 0 720 0 0 720 0 720 -720 0 -720 0 0 -720z m302
523 c14 -13 18 -31 18 -95 l0 -78 -30 0 -30 0 0 65 c0 58 -2 65 -20 65 -19 0
-20 -7 -20 -230 0 -223 1 -230 20 -230 18 0 20 7 20 65 l0 65 30 0 30 0 0 -79
c0 -96 -11 -111 -76 -111 -88 0 -84 -14 -84 282 0 300 0 298 78 298 28 0 52
-6 64 -17z m190 0 c17 -15 18 -37 18 -274 0 -295 2 -289 -80 -289 -82 0 -80
-6 -80 290 0 222 2 261 16 274 21 22 102 21 126 -1z m113 -246 c0 -238 1 -257
18 -257 16 0 17 19 17 260 l0 260 30 0 30 0 0 -278 c0 -203 -3 -281 -12 -290
-18 -18 -108 -15 -130 5 -17 15 -18 37 -18 290 l0 274 33 -3 32 -3 0 -258z
m277 246 c14 -13 18 -31 18 -95 l0 -78 -30 0 -30 0 0 65 c0 58 -2 65 -20 65
-19 0 -20 -7 -20 -230 0 -226 0 -230 21 -230 19 0 20 4 16 98 -3 53 -7 111 -9
127 -3 28 -1 30 35 33 l37 3 0 -145 c0 -173 -3 -179 -88 -174 -83 4 -83 4 -80
301 3 233 4 250 22 263 27 20 105 18 128 -3z m192 1 c14 -13 16 -54 16 -290
l0 -274 -30 0 -30 0 0 131 c0 119 -2 130 -17 127 -16 -3 -18 -19 -21 -131 l-3
-127 -29 0 -30 0 0 272 c0 313 -1 308 81 308 30 0 53 -6 63 -16z m198 -1 c15
-14 18 -32 18 -133 0 -77 -4 -120 -12 -128 -9 -9 -9 -15 0 -24 8 -8 12 -55 12
-146 l0 -133 -32 3 -33 3 -3 128 c-2 104 -5 127 -17 127 -12 0 -15 -22 -15
-130 l0 -130 -30 0 -30 0 0 290 0 290 62 0 c43 0 67 -5 80 -17z m-876 -616
c32 -37 30 -62 -6 -99 -16 -16 -30 -32 -30 -35 0 -4 11 -21 25 -39 14 -18 25
-35 25 -38 0 -3 -18 -6 -40 -6 -22 0 -40 5 -40 11 0 25 -53 79 -77 79 -23 0
-25 -3 -21 -45 l3 -45 -40 0 -40 0 3 126 3 126 106 -4 c100 -3 106 -5 129 -31z
m264 -52 c0 -82 1 -86 25 -97 18 -8 34 -9 53 -2 26 9 27 12 28 94 l2 85 36 0
c20 0 36 -3 36 -7 0 -5 0 -44 0 -87 0 -71 -3 -83 -25 -110 -31 -36 -91 -48
-153 -31 -58 15 -70 38 -74 148 l-3 92 38 0 37 0 0 -85z m500 20 c30 -35 59
-65 63 -65 5 0 7 28 6 63 l-3 62 32 3 31 3 3 -125 3 -126 -37 0 c-21 0 -38 5
-38 11 0 12 -106 131 -122 138 -6 2 -8 -29 -6 -73 l3 -76 -35 0 -35 0 2 122
c1 68 2 124 3 126 0 1 17 2 38 2 33 -1 43 -7 92 -65z m-955 -215 c3 -6 -1 -13
-9 -16 -22 -8 -20 -34 2 -34 16 -1 16 -1 0 -14 -22 -16 -24 -46 -3 -46 8 0 15
-4 15 -10 0 -5 -11 -10 -25 -10 -24 0 -25 2 -25 63 0 35 3 67 7 70 10 10 31 8
38 -3z m101 -107 c22 -8 16 -25 -8 -21 -20 3 -23 10 -26 57 -2 29 0 61 5 70 5
10 9 -5 11 -42 2 -39 8 -60 18 -64z m124 102 c0 -8 -4 -15 -10 -15 -14 0 -12
-27 3 -34 10 -5 10 -7 0 -12 -15 -7 -17 -44 -3 -44 6 0 10 -5 10 -11 0 -6 -10
-9 -22 -7 -20 3 -23 10 -26 57 -2 29 -1 60 2 67 7 19 46 18 46 -1z m100 -37
c0 -29 18 -21 25 12 13 57 25 42 25 -31 0 -54 -3 -70 -11 -62 -6 6 -18 9 -25
6 -8 -3 -14 1 -14 8 0 8 -6 5 -15 -7 -13 -17 -14 -12 -14 56 0 68 1 73 14 56
8 -11 15 -28 15 -38z m165 42 c3 -6 -1 -13 -9 -16 -20 -8 -21 -34 -1 -34 8 0
15 -4 15 -10 0 -5 -7 -10 -15 -10 -8 0 -15 -9 -15 -20 0 -11 7 -20 16 -20 8 0
12 -4 9 -10 -3 -5 -15 -10 -26 -10 -17 0 -19 7 -19 70 0 63 2 70 19 70 11 0
23 -5 26 -10z m98 -25 c4 -18 5 -18 6 3 0 12 6 22 11 22 13 0 13 -117 1 -124
-5 -4 -12 0 -14 6 -4 10 -8 9 -16 -2 -8 -11 -11 4 -11 60 0 69 11 86 23 35z
m142 26 c3 -5 1 -12 -5 -16 -5 -3 -10 -28 -10 -56 0 -27 -4 -49 -10 -49 -5 0
-10 22 -10 49 0 28 -5 53 -10 56 -15 9 -2 25 20 25 10 0 21 -4 25 -9z m99 1
c11 -18 23 -123 14 -128 -4 -3 -11 2 -14 10 -8 21 -24 21 -24 0 0 -8 -5 -12
-10 -9 -6 4 -9 14 -6 23 2 10 7 38 11 65 6 44 17 58 29 39z m122 0 c7 -4 12
-33 11 -69 0 -34 -4 -60 -9 -57 -4 3 -9 15 -9 27 -1 20 -2 20 -6 2 -12 -48
-23 -35 -23 26 0 76 7 90 36 71z m119 -10 c4 10 11 15 16 12 5 -3 6 -10 3 -16
-4 -5 -9 -32 -13 -59 -8 -65 -24 -67 -32 -4 -4 28 -8 55 -9 60 -5 23 1 27 14
9 14 -18 15 -18 21 -2z m15 -202 l0 -40 -565 0 -565 0 0 40 0 40 565 0 565 0
0 -40z"/>
<path d="M410 970 c0 -223 1 -230 20 -230 19 0 20 7 20 230 0 223 -1 230 -20
230 -19 0 -20 -7 -20 -230z"/>
<path d="M994 1187 c-3 -8 -4 -51 -2 -98 3 -70 6 -84 21 -87 15 -3 17 7 17 97
0 84 -3 101 -15 101 -9 0 -18 -6 -21 -13z"/>
<path d="M1190 1100 c0 -82 3 -100 15 -100 12 0 15 18 15 100 0 82 -3 100 -15
100 -12 0 -15 -18 -15 -100z"/>
<path d="M232 578 c2 -17 11 -24 32 -26 45 -5 76 6 76 28 0 18 -7 20 -56 20
-52 0 -55 -1 -52 -22z"/>
<path d="M1141 344 c0 -11 3 -14 6 -6 3 7 2 16 -1 19 -3 4 -6 -2 -5 -13z"/>
</g>
</svg>
